# xmcd
#
# Track frame offsets: 
#        150
#        12944
#        30094
#        44604
#        58475
#        73954
#        90892
#        103766
#        115012
#        130474
#        147154
#        161255
#        173968
#        188247
#        204085
#        221126
#        236529
#        249340
#        254166
#        271532
#        285529
#        301605
#        319161
#
# Disc length: 4413 seconds
#
# Revision: 2
# Processed by: cddbd v1.5.2PL0 Copyright (c) Steve Scherf et al.
# Submitted via: ExactAudioCopy v1.0b3
#
DISCID=44113b17
DTITLE=George R. R. Martin - A Storm of Swords - Disc 11
DYEAR=2004
DGENRE=Audio Book
TTITLE0=A Storm of Swords 11-01
TTITLE1=A Storm of Swords 11-02
TTITLE2=A Storm of Swords 11-03
TTITLE3=A Storm of Swords 11-04
TTITLE4=A Storm of Swords 11-05
TTITLE5=A Storm of Swords 11-06
TTITLE6=A Storm of Swords 11-07
TTITLE7=A Storm of Swords 11-08
TTITLE8=A Storm of Swords 11-09
TTITLE9=A Storm of Swords 11-10
TTITLE10=A Storm of Swords 11-11
TTITLE11=A Storm of Swords 11-12
TTITLE12=A Storm of Swords 11-13
TTITLE13=A Storm of Swords 11-14
TTITLE14=A Storm of Swords 11-15
TTITLE15=A Storm of Swords 11-16
TTITLE16=A Storm of Swords 11-17
TTITLE17=A Storm of Swords 11-18
TTITLE18=A Storm of Swords 11-19
TTITLE19=A Storm of Swords 11-20
TTITLE20=A Storm of Swords 11-21
TTITLE21=A Storm of Swords 11-22
TTITLE22=A Storm of Swords 11-23
EXTD=
EXTT0=
EXTT1=
EXTT2=
EXTT3=
EXTT4=
EXTT5=
EXTT6=
EXTT7=
EXTT8=
EXTT9=
EXTT10=
EXTT11=
EXTT12=
EXTT13=
EXTT14=
EXTT15=
EXTT16=
EXTT17=
EXTT18=
EXTT19=
EXTT20=
EXTT21=
EXTT22=
PLAYORDER=
